<?xml version="1.0" encoding="UTF-8" standalone="no" ?>
<!DOCTYPE svg PUBLIC "-//W3C//DTD SVG 1.1//EN" "http://www.w3.org/Graphics/SVG/1.1/DTD/svg11.dtd">
<svg xmlns="http://www.w3.org/2000/svg" xmlns:xlink="http://www.w3.org/1999/xlink" version="1.1" width="1080" height="1080" viewBox="0 0 1080 1080" xml:space="preserve">
<desc>Created with Fabric.js 5.2.4</desc>
<defs>
</defs>
<g transform="matrix(1 0 0 1 540 540)" id="15412f2a-1e88-4c95-a8dd-2515d9b3f79e"  >
<rect style="stroke: none; stroke-width: 1; stroke-dasharray: none; stroke-linecap: butt; stroke-dashoffset: 0; stroke-linejoin: miter; stroke-miterlimit: 4; fill: rgb(255,255,255); fill-rule: nonzero; opacity: 1; visibility: hidden;" vector-effect="non-scaling-stroke"  x="-540" y="-540" rx="0" ry="0" width="1080" height="1080" />
</g>
<g transform="matrix(1 0 0 1 540 540)" id="f7094ae7-f353-44eb-823b-959280934b7e"  >
</g>
<g transform="matrix(1 0 0 1 540 540)"  >
<g style="" vector-effect="non-scaling-stroke"   >
		<g transform="matrix(1.33 0 0 1.33 -222.49 224.64)"  >
<path style="stroke: none; stroke-width: 1; stroke-dasharray: none; stroke-linecap: butt; stroke-dashoffset: 0; stroke-linejoin: miter; stroke-miterlimit: 4; fill: rgb(191,168,121); fill-rule: nonzero; opacity: 1;" vector-effect="non-scaling-stroke"  transform=" translate(-27.43, -0.57)" d="M 49.734375 -28.035156 C 46.226562 -29.359375 40.929688 -29.875 37.476562 -29.589844 C 29.992188 -28.898438 24.234375 -24.234375 24.984375 -17.789062 C 25.960938 -8.117188 39.71875 -2.128906 39.71875 3.339844 C 39.71875 6.390625 36.554688 10.015625 26.078125 10.015625 C 15.023438 10.015625 11.972656 3.683594 11.972656 -3.625 L 11.972656 -15.65625 C 11.972656 -16.925781 10.996094 -17.960938 9.671875 -17.960938 L 5.699219 -17.960938 C 4.375 -17.960938 3.339844 -17.097656 3.339844 -15.65625 L 3.339844 -3.625 C 3.339844 8.289062 9.210938 17.5 26.078125 17.5 C 41.851562 17.5 48.355469 10.1875 48.355469 2.878906 C 48.355469 -5.8125 34.710938 -11.28125 33.675781 -17.039062 C 33.042969 -19.976562 35 -22.277344 38.511719 -22.679688 C 41.332031 -23.082031 46.226562 -22.21875 49.734375 -20.894531 C 50.886719 -20.492188 51.519531 -20.839844 51.519531 -22.046875 L 51.519531 -25.558594 C 51.519531 -26.652344 51.117188 -27.574219 49.734375 -28.035156 Z M 21.011719 23.082031 C 18.476562 23.082031 17.097656 24.464844 17.097656 26.941406 C 17.097656 29.472656 18.476562 30.796875 21.011719 30.796875 C 23.488281 30.796875 24.808594 29.472656 24.808594 26.941406 C 24.808594 24.464844 23.488281 23.082031 21.011719 23.082031 Z M 31.144531 23.082031 C 28.667969 23.082031 27.285156 24.464844 27.285156 26.941406 C 27.285156 29.472656 28.667969 30.796875 31.144531 30.796875 C 33.617188 30.796875 35 29.472656 35 26.941406 C 35 24.464844 33.617188 23.082031 31.144531 23.082031 Z M 31.144531 23.082031" stroke-linecap="round" />
</g>
		<g transform="matrix(1.33 0 0 1.33 -156.79 215.67)"  >
<path style="stroke: none; stroke-width: 1; stroke-dasharray: none; stroke-linecap: butt; stroke-dashoffset: 0; stroke-linejoin: miter; stroke-miterlimit: 4; fill: rgb(191,168,121); fill-rule: nonzero; opacity: 1;" vector-effect="non-scaling-stroke"  transform=" translate(-22.71, 6.16)" d="M 35.574219 -7.484375 L 35.574219 -14.390625 C 35.574219 -23.082031 28.839844 -29.53125 19.570312 -29.53125 C 10.304688 -29.53125 3.625 -23.140625 3.625 -14.5625 C 3.625 -5.871094 10.1875 0 19.570312 0 L 26.710938 0 C 26.132812 5.410156 23.890625 9.726562 16.40625 9.726562 C 13.585938 9.726562 11.6875 9.382812 7.597656 8.058594 C 6.449219 7.714844 5.8125 8 5.8125 9.210938 L 5.8125 13.238281 C 5.8125 14.277344 6.21875 15.253906 7.597656 15.714844 C 11.339844 16.980469 13.527344 17.210938 16.40625 17.210938 C 27.917969 17.210938 34.078125 9.957031 35.34375 0 L 40.179688 0 L 41.792969 -1.613281 L 41.792969 -5.871094 L 40.179688 -7.484375 Z M 12.261719 -14.5625 C 12.261719 -18.765625 15.371094 -22.046875 19.570312 -22.046875 C 23.832031 -22.046875 26.882812 -18.765625 26.882812 -14.390625 L 26.882812 -7.484375 L 19.570312 -7.484375 C 15.371094 -7.484375 12.261719 -10.246094 12.261719 -14.5625 Z M 12.261719 -14.5625" stroke-linecap="round" />
</g>
		<g transform="matrix(1.33 0 0 1.33 -118.8 197.67)"  >
<path style="stroke: none; stroke-width: 1; stroke-dasharray: none; stroke-linecap: butt; stroke-dashoffset: 0; stroke-linejoin: miter; stroke-miterlimit: 4; fill: rgb(191,168,121); fill-rule: nonzero; opacity: 1;" vector-effect="non-scaling-stroke"  transform=" translate(-11.02, 19.66)" d="M 11.511719 -30.914062 C 14.277344 -30.914062 15.714844 -32.410156 15.714844 -35.113281 C 15.714844 -37.820312 14.277344 -39.316406 11.511719 -39.316406 C 8.75 -39.316406 7.3125 -37.820312 7.3125 -35.113281 C 7.3125 -32.410156 8.75 -30.914062 11.511719 -30.914062 Z M 20.664062 -7.484375 C 17.097656 -7.484375 15.714844 -9.152344 15.714844 -12.78125 L 15.714844 -23.257812 C 15.714844 -24.695312 14.910156 -25.558594 13.414062 -25.558594 L 9.210938 -25.558594 C 7.769531 -25.558594 6.90625 -24.695312 6.90625 -23.257812 L 6.90625 -12.492188 C 6.90625 -9.269531 5.238281 -7.484375 2.359375 -7.484375 L 0 -7.484375 L -1.613281 -5.871094 L -1.613281 -1.613281 L 0 0 L 4.433594 0 C 8 0 10.9375 -1.152344 12.953125 -3.339844 C 14.851562 -1.152344 17.671875 0 21.242188 0 L 22.046875 0 L 23.660156 -1.613281 L 23.660156 -5.871094 L 22.046875 -7.484375 Z M 20.664062 -7.484375" stroke-linecap="round" />
</g>
		<g transform="matrix(1.33 0 0 1.33 -64.69 205.04)"  >
<path style="stroke: none; stroke-width: 1; stroke-dasharray: none; stroke-linecap: butt; stroke-dashoffset: 0; stroke-linejoin: miter; stroke-miterlimit: 4; fill: rgb(191,168,121); fill-rule: nonzero; opacity: 1;" vector-effect="non-scaling-stroke"  transform=" translate(-29.56, 14.13)" d="M 58.3125 -7.484375 C 54.746094 -7.484375 53.363281 -9.152344 53.363281 -12.78125 L 53.421875 -26.710938 C 53.421875 -28.148438 52.558594 -29.011719 51.117188 -29.011719 L 46.914062 -29.011719 C 45.417969 -29.011719 44.554688 -28.148438 44.554688 -26.710938 L 44.554688 -14.910156 C 44.554688 -9.09375 42.828125 -6.273438 38.855469 -6.273438 C 35 -6.273438 33.273438 -9.152344 33.273438 -12.78125 L 33.273438 -21.527344 C 33.273438 -23.027344 32.464844 -23.832031 30.96875 -23.832031 L 26.769531 -23.832031 C 25.328125 -23.832031 24.464844 -23.027344 24.464844 -21.527344 L 24.464844 -11.457031 C 24.464844 -8.230469 22.796875 -6.273438 19.800781 -6.273438 C 16.980469 -6.273438 15.140625 -8 15.140625 -11.570312 L 15.140625 -21.527344 C 15.140625 -23.027344 14.332031 -23.832031 12.835938 -23.832031 L 8.632812 -23.832031 C 7.195312 -23.832031 6.332031 -23.027344 6.332031 -21.527344 L 6.332031 -12.492188 C 6.332031 -9.269531 4.664062 -7.484375 1.785156 -7.484375 L 0 -7.484375 L -1.613281 -5.871094 L -1.613281 -1.613281 L 0 0 L 3.855469 0 C 7.195312 0 10.015625 -1.035156 11.972656 -2.9375 C 13.875 -0.460938 16.925781 0.75 20.664062 0.75 C 24.808594 0.75 28.207031 -0.574219 30.453125 -3.28125 C 32.410156 -0.691406 35.574219 0.75 39.605469 0.75 C 44.441406 0.75 47.953125 -1.152344 50.140625 -4.433594 C 51.691406 -1.265625 54.628906 0 58.484375 0 L 59.121094 0 L 60.730469 -1.613281 L 60.730469 -5.871094 L 59.121094 -7.484375 Z M 58.3125 -7.484375" stroke-linecap="round" />
</g>
		<g transform="matrix(1.33 0 0 1.33 -15.88 194.56)"  >
<path style="stroke: none; stroke-width: 1; stroke-dasharray: none; stroke-linecap: butt; stroke-dashoffset: 0; stroke-linejoin: miter; stroke-miterlimit: 4; fill: rgb(191,168,121); fill-rule: nonzero; opacity: 1;" vector-effect="non-scaling-stroke"  transform=" translate(-7.05, 21.99)" d="M 4.433594 0 C 11.050781 0 15.714844 -4.144531 15.714844 -11.167969 L 15.714844 -41.675781 C 15.714844 -43.117188 14.910156 -43.980469 13.414062 -43.980469 L 9.210938 -43.980469 C 7.769531 -43.980469 6.90625 -43.117188 6.90625 -41.675781 L 6.90625 -12.492188 C 6.90625 -9.269531 5.066406 -7.484375 2.359375 -7.484375 L 0 -7.484375 L -1.613281 -5.871094 L -1.613281 -1.613281 L 0 0 Z M 4.433594 0" stroke-linecap="round" />
</g>
		<g transform="matrix(1.33 0 0 1.33 13.75 194.56)"  >
<path style="stroke: none; stroke-width: 1; stroke-dasharray: none; stroke-linecap: butt; stroke-dashoffset: 0; stroke-linejoin: miter; stroke-miterlimit: 4; fill: rgb(191,168,121); fill-rule: nonzero; opacity: 1;" vector-effect="non-scaling-stroke"  transform=" translate(-10.22, 21.99)" d="M 12.320312 0 C 13.816406 0 14.679688 -0.863281 14.679688 -2.359375 L 14.679688 -41.621094 C 14.679688 -43.117188 13.816406 -43.980469 12.320312 -43.980469 L 8.117188 -43.980469 C 6.621094 -43.980469 5.757812 -43.117188 5.757812 -41.621094 L 5.757812 -2.359375 C 5.757812 -0.863281 6.621094 0 8.117188 0 Z M 12.320312 0" stroke-linecap="round" />
</g>
		<g transform="matrix(1.33 0 0 1.33 76.61 203.54)"  >
<path style="stroke: none; stroke-width: 1; stroke-dasharray: none; stroke-linecap: butt; stroke-dashoffset: 0; stroke-linejoin: miter; stroke-miterlimit: 4; fill: rgb(191,168,121); fill-rule: nonzero; opacity: 1;" vector-effect="non-scaling-stroke"  transform=" translate(-24.44, 15.26)" d="M 43 -7.484375 C 39.433594 -7.484375 38.050781 -9.152344 38.050781 -12.78125 L 38.050781 -41.621094 C 38.050781 -43.117188 37.1875 -43.980469 35.632812 -43.980469 L 31.546875 -43.980469 C 30.050781 -43.980469 29.242188 -43.117188 29.242188 -41.621094 L 29.242188 -3.625 C 29.242188 1.84375 25.847656 5.527344 20.722656 5.527344 C 15.65625 5.527344 12.203125 1.84375 12.203125 -3.625 L 12.203125 -15.601562 C 12.203125 -17.097656 11.398438 -17.960938 9.84375 -17.960938 L 5.640625 -17.960938 C 4.144531 -17.960938 3.339844 -17.097656 3.339844 -15.601562 L 3.339844 -4.144531 C 3.339844 6.449219 10.304688 13.46875 20.722656 13.46875 C 30.105469 13.46875 36.726562 7.714844 37.878906 -1.265625 C 39.433594 -0.460938 41.214844 0 43.289062 0 L 43.921875 0 L 45.535156 -1.613281 L 45.535156 -5.871094 L 43.921875 -7.484375 Z M 43 -7.484375" stroke-linecap="round" />
</g>
		<g transform="matrix(1.33 0 0 1.33 129.64 194.76)"  >
<path style="stroke: none; stroke-width: 1; stroke-dasharray: none; stroke-linecap: butt; stroke-dashoffset: 0; stroke-linejoin: miter; stroke-miterlimit: 4; fill: rgb(191,168,121); fill-rule: nonzero; opacity: 1;" vector-effect="non-scaling-stroke"  transform=" translate(-20.29, 21.85)" d="M 20.261719 -35.34375 C 23.027344 -35.34375 24.464844 -36.785156 24.464844 -39.488281 C 24.464844 -42.253906 23.027344 -43.691406 20.261719 -43.691406 C 17.5 -43.691406 16.0625 -42.253906 16.0625 -39.488281 C 16.0625 -36.785156 17.5 -35.34375 20.261719 -35.34375 Z M 34.710938 -7.484375 C 35.746094 -9.902344 36.265625 -12.261719 36.265625 -14.390625 C 36.265625 -23.082031 29.589844 -29.53125 20.320312 -29.53125 C 11.050781 -29.53125 4.316406 -23.371094 4.316406 -15.082031 C 4.316406 -12.089844 5.238281 -9.5 6.90625 -7.484375 L 0 -7.484375 L -1.613281 -5.871094 L -1.613281 -1.613281 L 0 0 L 40.582031 0 L 42.195312 -1.613281 L 42.195312 -5.871094 L 40.582031 -7.484375 Z M 20.320312 -7.484375 C 15.65625 -7.597656 13.007812 -11.167969 13.007812 -14.679688 C 13.007812 -18.996094 16.0625 -22.046875 20.320312 -22.046875 C 24.523438 -22.046875 27.632812 -18.765625 27.632812 -14.390625 C 27.632812 -12.433594 27.054688 -10.074219 26.019531 -7.484375 Z M 20.320312 -7.484375" stroke-linecap="round" />
</g>
		<g transform="matrix(1.33 0 0 1.33 181.41 204.2)"  >
<path style="stroke: none; stroke-width: 1; stroke-dasharray: none; stroke-linecap: butt; stroke-dashoffset: 0; stroke-linejoin: miter; stroke-miterlimit: 4; fill: rgb(191,168,121); fill-rule: nonzero; opacity: 1;" vector-effect="non-scaling-stroke"  transform=" translate(-18.54, 14.77)" d="M 37.070312 0 L 38.683594 -1.613281 L 38.683594 -5.871094 L 37.070312 -7.484375 L 35 -7.484375 C 31.488281 -7.484375 31.257812 -10.765625 31.257812 -13.585938 L 31.257812 -16.175781 C 31.257812 -26.308594 23.832031 -29.53125 15.886719 -29.53125 C 12.550781 -29.53125 9.554688 -29.300781 5.8125 -28.035156 C 4.433594 -27.632812 4.03125 -26.652344 4.03125 -25.558594 L 4.03125 -22.046875 C 4.03125 -20.839844 4.664062 -20.550781 5.8125 -20.894531 C 9.902344 -22.21875 12.605469 -22.507812 15.886719 -22.507812 C 20.207031 -22.507812 23.140625 -20.4375 23.140625 -16.0625 L 23.140625 -13.585938 C 23.140625 -10.648438 23.429688 -8.632812 24.464844 -7.484375 L 0 -7.484375 L -1.613281 -5.871094 L -1.613281 -1.613281 L 0 0 Z M 37.070312 0" stroke-linecap="round" />
</g>
		<g transform="matrix(1.33 0 0 1.33 215.52 194.56)"  >
<path style="stroke: none; stroke-width: 1; stroke-dasharray: none; stroke-linecap: butt; stroke-dashoffset: 0; stroke-linejoin: miter; stroke-miterlimit: 4; fill: rgb(191,168,121); fill-rule: nonzero; opacity: 1;" vector-effect="non-scaling-stroke"  transform=" translate(-7.05, 21.99)" d="M 4.433594 0 C 11.050781 0 15.714844 -4.144531 15.714844 -11.167969 L 15.714844 -41.675781 C 15.714844 -43.117188 14.910156 -43.980469 13.414062 -43.980469 L 9.210938 -43.980469 C 7.769531 -43.980469 6.90625 -43.117188 6.90625 -41.675781 L 6.90625 -12.492188 C 6.90625 -9.269531 5.066406 -7.484375 2.359375 -7.484375 L 0 -7.484375 L -1.613281 -5.871094 L -1.613281 -1.613281 L 0 0 Z M 4.433594 0" stroke-linecap="round" />
</g>
		<g transform="matrix(1.33 0 0 1.33 245.15 194.56)"  >
<path style="stroke: none; stroke-width: 1; stroke-dasharray: none; stroke-linecap: butt; stroke-dashoffset: 0; stroke-linejoin: miter; stroke-miterlimit: 4; fill: rgb(191,168,121); fill-rule: nonzero; opacity: 1;" vector-effect="non-scaling-stroke"  transform=" translate(-10.22, 21.99)" d="M 12.320312 0 C 13.816406 0 14.679688 -0.863281 14.679688 -2.359375 L 14.679688 -41.621094 C 14.679688 -43.117188 13.816406 -43.980469 12.320312 -43.980469 L 8.117188 -43.980469 C 6.621094 -43.980469 5.757812 -43.117188 5.757812 -41.621094 L 5.757812 -2.359375 C 5.757812 -0.863281 6.621094 0 8.117188 0 Z M 12.320312 0" stroke-linecap="round" />
</g>
		<g transform="matrix(1.33 0 0 1.33 -243.82 309.3)"  >
<path style="stroke: none; stroke-width: 1; stroke-dasharray: none; stroke-linecap: butt; stroke-dashoffset: 0; stroke-linejoin: miter; stroke-miterlimit: 4; fill: rgb(191,168,121); fill-rule: nonzero; opacity: 1;" vector-effect="non-scaling-stroke"  transform=" translate(-13.04, 15.61)" d="M 8.234375 -6.15625 L 17.667969 -6.15625 L 19.21875 -1.683594 C 19.660156 -0.441406 21.078125 0.398438 22.226562 0.398438 C 24.042969 0.398438 25.417969 -0.753906 25.417969 -2.433594 C 25.417969 -2.65625 25.371094 -3.1875 25.285156 -3.410156 L 16.648438 -28.605469 C 16.027344 -30.375 15.144531 -31.613281 13.019531 -31.613281 C 10.894531 -31.613281 10.007812 -30.332031 9.429688 -28.605469 L 0.796875 -3.410156 C 0.707031 -3.1875 0.664062 -2.65625 0.664062 -2.433594 C 0.664062 -0.753906 2.125 0.398438 3.851562 0.398438 C 4.914062 0.398438 6.332031 -0.398438 6.773438 -1.683594 Z M 16.074219 -11.203125 L 9.875 -11.203125 L 12.222656 -18.773438 C 12.621094 -20.058594 12.839844 -21.742188 13.019531 -23.113281 C 13.195312 -21.742188 13.417969 -20.058594 13.816406 -18.773438 Z M 16.074219 -11.203125" stroke-linecap="round" />
</g>
		<g transform="matrix(1.33 0 0 1.33 -207.57 309.3)"  >
<path style="stroke: none; stroke-width: 1; stroke-dasharray: none; stroke-linecap: butt; stroke-dashoffset: 0; stroke-linejoin: miter; stroke-miterlimit: 4; fill: rgb(191,168,121); fill-rule: nonzero; opacity: 1;" vector-effect="non-scaling-stroke"  transform=" translate(-14.15, 15.61)" d="M 22.226562 0.398438 C 24.175781 0.398438 25.503906 -0.972656 25.503906 -2.613281 L 25.503906 -28.738281 C 25.503906 -30.285156 24.175781 -31.613281 22.449219 -31.613281 C 20.765625 -31.613281 19.304688 -30.285156 19.304688 -28.738281 L 19.304688 -12 C 15.230469 -19.128906 12.972656 -23.15625 9.03125 -29.976562 C 8.414062 -30.949219 7.21875 -31.613281 6.023438 -31.613281 C 4.164062 -31.613281 2.789062 -30.332031 2.789062 -28.605469 L 2.789062 -2.480469 C 2.789062 -0.929688 4.117188 0.398438 5.84375 0.398438 C 7.527344 0.398438 8.988281 -0.929688 8.988281 -2.480469 L 8.988281 -19.039062 L 19.261719 -1.152344 C 19.835938 -0.222656 21.078125 0.398438 22.226562 0.398438 Z M 22.226562 0.398438" stroke-linecap="round" />
</g>
		<g transform="matrix(1.33 0 0 1.33 -169.79 309.3)"  >
<path style="stroke: none; stroke-width: 1; stroke-dasharray: none; stroke-linecap: butt; stroke-dashoffset: 0; stroke-linejoin: miter; stroke-miterlimit: 4; fill: rgb(191,168,121); fill-rule: nonzero; opacity: 1;" vector-effect="non-scaling-stroke"  transform=" translate(-14.15, 15.61)" d="M 22.226562 0.398438 C 24.175781 0.398438 25.503906 -0.972656 25.503906 -2.613281 L 25.503906 -28.738281 C 25.503906 -30.285156 24.175781 -31.613281 22.449219 -31.613281 C 20.765625 -31.613281 19.304688 -30.285156 19.304688 -28.738281 L 19.304688 -12 C 15.230469 -19.128906 12.972656 -23.15625 9.03125 -29.976562 C 8.414062 -30.949219 7.21875 -31.613281 6.023438 -31.613281 C 4.164062 -31.613281 2.789062 -30.332031 2.789062 -28.605469 L 2.789062 -2.480469 C 2.789062 -0.929688 4.117188 0.398438 5.84375 0.398438 C 7.527344 0.398438 8.988281 -0.929688 8.988281 -2.480469 L 8.988281 -19.039062 L 19.261719 -1.152344 C 19.835938 -0.222656 21.078125 0.398438 22.226562 0.398438 Z M 22.226562 0.398438" stroke-linecap="round" />
</g>
		<g transform="matrix(1.33 0 0 1.33 -132.8 309.3)"  >
<path style="stroke: none; stroke-width: 1; stroke-dasharray: none; stroke-linecap: butt; stroke-dashoffset: 0; stroke-linejoin: miter; stroke-miterlimit: 4; fill: rgb(191,168,121); fill-rule: nonzero; opacity: 1;" vector-effect="non-scaling-stroke"  transform=" translate(-13.55, 15.61)" d="M 24.664062 -10.628906 L 24.664062 -28.691406 C 24.664062 -30.242188 23.289062 -31.613281 21.476562 -31.613281 C 19.75 -31.613281 18.421875 -30.242188 18.421875 -28.691406 L 18.421875 -10.628906 C 18.421875 -7.484375 16.871094 -5.226562 13.550781 -5.226562 C 10.183594 -5.226562 8.632812 -7.4375 8.632812 -10.628906 L 8.632812 -28.691406 C 8.632812 -30.285156 7.21875 -31.613281 5.578125 -31.613281 C 3.808594 -31.613281 2.433594 -30.375 2.433594 -28.691406 L 2.433594 -10.628906 C 2.433594 -4.296875 6.421875 0.398438 13.550781 0.398438 C 20.546875 0.398438 24.664062 -4.25 24.664062 -10.628906 Z M 24.664062 -10.628906" stroke-linecap="round" />
</g>
		<g transform="matrix(1.33 0 0 1.33 -97.35 309.3)"  >
<path style="stroke: none; stroke-width: 1; stroke-dasharray: none; stroke-linecap: butt; stroke-dashoffset: 0; stroke-linejoin: miter; stroke-miterlimit: 4; fill: rgb(191,168,121); fill-rule: nonzero; opacity: 1;" vector-effect="non-scaling-stroke"  transform=" translate(-13.04, 15.61)" d="M 8.234375 -6.15625 L 17.667969 -6.15625 L 19.21875 -1.683594 C 19.660156 -0.441406 21.078125 0.398438 22.226562 0.398438 C 24.042969 0.398438 25.417969 -0.753906 25.417969 -2.433594 C 25.417969 -2.65625 25.371094 -3.1875 25.285156 -3.410156 L 16.648438 -28.605469 C 16.027344 -30.375 15.144531 -31.613281 13.019531 -31.613281 C 10.894531 -31.613281 10.007812 -30.332031 9.429688 -28.605469 L 0.796875 -3.410156 C 0.707031 -3.1875 0.664062 -2.65625 0.664062 -2.433594 C 0.664062 -0.753906 2.125 0.398438 3.851562 0.398438 C 4.914062 0.398438 6.332031 -0.398438 6.773438 -1.683594 Z M 16.074219 -11.203125 L 9.875 -11.203125 L 12.222656 -18.773438 C 12.621094 -20.058594 12.839844 -21.742188 13.019531 -23.113281 C 13.195312 -21.742188 13.417969 -20.058594 13.816406 -18.773438 Z M 16.074219 -11.203125" stroke-linecap="round" />
</g>
		<g transform="matrix(1.33 0 0 1.33 -63.7 309.04)"  >
<path style="stroke: none; stroke-width: 1; stroke-dasharray: none; stroke-linecap: butt; stroke-dashoffset: 0; stroke-linejoin: miter; stroke-miterlimit: 4; fill: rgb(191,168,121); fill-rule: nonzero; opacity: 1;" vector-effect="non-scaling-stroke"  transform=" translate(-12.2, 15.81)" d="M 21.609375 -2.832031 C 21.609375 -4.382812 20.191406 -5.578125 18.597656 -5.578125 L 8.988281 -5.578125 L 8.988281 -28.78125 C 8.988281 -30.285156 7.570312 -31.613281 5.890625 -31.613281 C 4.164062 -31.613281 2.789062 -30.285156 2.789062 -28.78125 L 2.789062 -3.054688 C 2.789062 -1.328125 4.339844 0 6.109375 0 L 18.597656 0 C 20.28125 0 21.609375 -1.238281 21.609375 -2.832031 Z M 21.609375 -2.832031" stroke-linecap="round" />
</g>
		<g transform="matrix(1.33 0 0 1.33 -16.85 309.27)"  >
<path style="stroke: none; stroke-width: 1; stroke-dasharray: none; stroke-linecap: butt; stroke-dashoffset: 0; stroke-linejoin: miter; stroke-miterlimit: 4; fill: rgb(191,168,121); fill-rule: nonzero; opacity: 1;" vector-effect="non-scaling-stroke"  transform=" translate(-11.78, 15.63)" d="M 7.75 -20.015625 C 7.75 -23.820312 9.078125 -26.214844 13.0625 -26.214844 C 14.480469 -26.214844 15.628906 -25.859375 16.738281 -25.152344 L 17.179688 -24.886719 C 17.757812 -24.53125 18.066406 -24.21875 19.085938 -24.21875 C 20.765625 -24.21875 22.007812 -25.460938 22.007812 -26.878906 C 22.007812 -29.445312 17.535156 -31.613281 12.839844 -31.613281 C 5.09375 -31.613281 1.550781 -27.011719 1.550781 -20.015625 L 1.550781 -11.246094 C 1.550781 -4.25 5.09375 0.355469 12.839844 0.355469 C 17.535156 0.355469 22.007812 -1.816406 22.007812 -4.382812 C 22.007812 -5.800781 20.765625 -7.039062 19.085938 -7.039062 C 18.066406 -7.039062 17.757812 -6.730469 17.179688 -6.375 L 16.738281 -6.109375 C 15.628906 -5.402344 14.480469 -5.046875 13.0625 -5.046875 C 9.078125 -5.046875 7.75 -7.4375 7.75 -11.246094 Z M 7.75 -20.015625" stroke-linecap="round" />
</g>
		<g transform="matrix(1.33 0 0 1.33 14.62 309.3)"  >
<path style="stroke: none; stroke-width: 1; stroke-dasharray: none; stroke-linecap: butt; stroke-dashoffset: 0; stroke-linejoin: miter; stroke-miterlimit: 4; fill: rgb(191,168,121); fill-rule: nonzero; opacity: 1;" vector-effect="non-scaling-stroke"  transform=" translate(-12.27, 15.61)" d="M 21.742188 -2.878906 C 21.742188 -4.382812 20.28125 -5.625 18.640625 -5.625 L 8.988281 -5.625 L 8.988281 -12.839844 L 17.355469 -12.839844 C 19.085938 -12.839844 20.414062 -14.082031 20.414062 -15.675781 C 20.414062 -17.269531 18.90625 -18.464844 17.355469 -18.464844 L 8.988281 -18.464844 L 8.988281 -25.59375 L 18.199219 -25.59375 C 19.882812 -25.59375 21.296875 -26.746094 21.296875 -28.339844 C 21.296875 -29.886719 19.882812 -31.214844 18.199219 -31.214844 L 6.199219 -31.214844 C 4.25 -31.214844 2.789062 -29.621094 2.789062 -28.074219 L 2.789062 -3.144531 C 2.789062 -0.753906 4.738281 0 6.90625 0 L 18.640625 0 C 20.324219 0 21.742188 -1.285156 21.742188 -2.878906 Z M 21.742188 -2.878906" stroke-linecap="round" />
</g>
		<g transform="matrix(1.33 0 0 1.33 47.29 309.57)"  >
<path style="stroke: none; stroke-width: 1; stroke-dasharray: none; stroke-linecap: butt; stroke-dashoffset: 0; stroke-linejoin: miter; stroke-miterlimit: 4; fill: rgb(191,168,121); fill-rule: nonzero; opacity: 1;" vector-effect="non-scaling-stroke"  transform=" translate(-14.01, 15.41)" d="M 24.839844 -21.828125 C 24.839844 -26.480469 22.183594 -31.214844 13.859375 -31.214844 L 6.15625 -31.214844 C 4.339844 -31.214844 2.789062 -29.753906 2.789062 -28.027344 L 2.789062 -2.523438 C 2.789062 -0.929688 4.207031 0.398438 5.84375 0.398438 C 7.527344 0.398438 8.988281 -0.972656 8.988281 -2.523438 L 8.988281 -12.664062 L 12 -12.664062 L 19.4375 -1.019531 C 20.015625 -0.132812 20.945312 0.355469 22.050781 0.355469 C 24.042969 0.355469 26.214844 -1.992188 24.753906 -4.207031 L 18.6875 -13.328125 C 22.492188 -14.566406 24.839844 -17.445312 24.839844 -21.828125 Z M 18.640625 -21.828125 C 18.640625 -19.527344 17.003906 -18.242188 13.949219 -18.242188 L 8.988281 -18.242188 L 8.988281 -25.59375 L 13.683594 -25.59375 C 17.710938 -25.59375 18.640625 -23.6875 18.640625 -21.828125 Z M 18.640625 -21.828125" stroke-linecap="round" />
</g>
		<g transform="matrix(1.33 0 0 1.33 81.27 309.3)"  >
<path style="stroke: none; stroke-width: 1; stroke-dasharray: none; stroke-linecap: butt; stroke-dashoffset: 0; stroke-linejoin: miter; stroke-miterlimit: 4; fill: rgb(191,168,121); fill-rule: nonzero; opacity: 1;" vector-effect="non-scaling-stroke"  transform=" translate(-12.27, 15.61)" d="M 21.742188 -2.878906 C 21.742188 -4.382812 20.28125 -5.625 18.640625 -5.625 L 8.988281 -5.625 L 8.988281 -12.839844 L 17.355469 -12.839844 C 19.085938 -12.839844 20.414062 -14.082031 20.414062 -15.675781 C 20.414062 -17.269531 18.90625 -18.464844 17.355469 -18.464844 L 8.988281 -18.464844 L 8.988281 -25.59375 L 18.199219 -25.59375 C 19.882812 -25.59375 21.296875 -26.746094 21.296875 -28.339844 C 21.296875 -29.886719 19.882812 -31.214844 18.199219 -31.214844 L 6.199219 -31.214844 C 4.25 -31.214844 2.789062 -29.621094 2.789062 -28.074219 L 2.789062 -3.144531 C 2.789062 -0.753906 4.738281 0 6.90625 0 L 18.640625 0 C 20.324219 0 21.742188 -1.285156 21.742188 -2.878906 Z M 21.742188 -2.878906" stroke-linecap="round" />
</g>
		<g transform="matrix(1.33 0 0 1.33 117.61 309.3)"  >
<path style="stroke: none; stroke-width: 1; stroke-dasharray: none; stroke-linecap: butt; stroke-dashoffset: 0; stroke-linejoin: miter; stroke-miterlimit: 4; fill: rgb(191,168,121); fill-rule: nonzero; opacity: 1;" vector-effect="non-scaling-stroke"  transform=" translate(-16.76, 15.61)" d="M 30.90625 -28.691406 C 30.90625 -30.285156 29.535156 -31.613281 27.71875 -31.613281 C 26.480469 -31.613281 25.285156 -31.214844 24.664062 -29.933594 L 16.78125 -14.257812 L 8.898438 -29.886719 C 8.324219 -31.039062 7.21875 -31.613281 5.800781 -31.613281 C 3.984375 -31.613281 2.613281 -30.375 2.613281 -28.691406 L 2.613281 -2.390625 C 2.613281 -0.886719 3.941406 0.398438 5.625 0.398438 C 7.351562 0.398438 8.8125 -0.886719 8.8125 -2.390625 L 8.8125 -17.621094 L 13.859375 -7.703125 C 14.433594 -6.554688 15.542969 -6.023438 16.738281 -6.023438 C 17.976562 -6.023438 19.085938 -6.554688 19.660156 -7.703125 L 24.707031 -17.621094 L 24.707031 -2.390625 C 24.707031 -0.886719 26.167969 0.398438 27.851562 0.398438 C 29.488281 0.398438 30.90625 -0.886719 30.90625 -2.390625 Z M 30.90625 -28.691406" stroke-linecap="round" />
</g>
		<g transform="matrix(1.33 0 0 1.33 158.08 309.3)"  >
<path style="stroke: none; stroke-width: 1; stroke-dasharray: none; stroke-linecap: butt; stroke-dashoffset: 0; stroke-linejoin: miter; stroke-miterlimit: 4; fill: rgb(191,168,121); fill-rule: nonzero; opacity: 1;" vector-effect="non-scaling-stroke"  transform=" translate(-13.51, 15.61)" d="M 13.503906 0.398438 C 21.164062 0.398438 25.019531 -4.78125 25.019531 -11.246094 L 25.019531 -20.015625 C 25.019531 -26.300781 21.785156 -31.613281 13.503906 -31.613281 C 5.226562 -31.613281 1.992188 -26.300781 1.992188 -20.015625 L 1.992188 -11.246094 C 1.992188 -4.78125 5.84375 0.398438 13.503906 0.398438 Z M 13.503906 -25.992188 C 17.402344 -25.992188 18.820312 -23.601562 18.820312 -20.015625 L 18.820312 -11.246094 C 18.820312 -7.703125 17.136719 -5.226562 13.503906 -5.226562 C 9.875 -5.226562 8.191406 -7.703125 8.191406 -11.246094 L 8.191406 -20.015625 C 8.191406 -23.601562 9.609375 -25.992188 13.503906 -25.992188 Z M 13.503906 -25.992188" stroke-linecap="round" />
</g>
		<g transform="matrix(1.33 0 0 1.33 194.95 309.3)"  >
<path style="stroke: none; stroke-width: 1; stroke-dasharray: none; stroke-linecap: butt; stroke-dashoffset: 0; stroke-linejoin: miter; stroke-miterlimit: 4; fill: rgb(191,168,121); fill-rule: nonzero; opacity: 1;" vector-effect="non-scaling-stroke"  transform=" translate(-14.15, 15.61)" d="M 22.226562 0.398438 C 24.175781 0.398438 25.503906 -0.972656 25.503906 -2.613281 L 25.503906 -28.738281 C 25.503906 -30.285156 24.175781 -31.613281 22.449219 -31.613281 C 20.765625 -31.613281 19.304688 -30.285156 19.304688 -28.738281 L 19.304688 -12 C 15.230469 -19.128906 12.972656 -23.15625 9.03125 -29.976562 C 8.414062 -30.949219 7.21875 -31.613281 6.023438 -31.613281 C 4.164062 -31.613281 2.789062 -30.332031 2.789062 -28.605469 L 2.789062 -2.480469 C 2.789062 -0.929688 4.117188 0.398438 5.84375 0.398438 C 7.527344 0.398438 8.988281 -0.929688 8.988281 -2.480469 L 8.988281 -19.039062 L 19.261719 -1.152344 C 19.835938 -0.222656 21.078125 0.398438 22.226562 0.398438 Z M 22.226562 0.398438" stroke-linecap="round" />
</g>
		<g transform="matrix(1.33 0 0 1.33 221.72 309.3)"  >
<path style="stroke: none; stroke-width: 1; stroke-dasharray: none; stroke-linecap: butt; stroke-dashoffset: 0; stroke-linejoin: miter; stroke-miterlimit: 4; fill: rgb(191,168,121); fill-rule: nonzero; opacity: 1;" vector-effect="non-scaling-stroke"  transform=" translate(-5.89, 15.61)" d="M 2.789062 -2.433594 C 2.789062 -0.929688 4.164062 0.398438 5.890625 0.398438 C 7.570312 0.398438 8.988281 -0.929688 8.988281 -2.433594 L 8.988281 -28.78125 C 8.988281 -30.285156 7.570312 -31.613281 5.890625 -31.613281 C 4.164062 -31.613281 2.789062 -30.285156 2.789062 -28.78125 Z M 2.789062 -2.433594" stroke-linecap="round" />
</g>
		<g transform="matrix(1.33 0 0 1.33 245.28 309.3)"  >
<path style="stroke: none; stroke-width: 1; stroke-dasharray: none; stroke-linecap: butt; stroke-dashoffset: 0; stroke-linejoin: miter; stroke-miterlimit: 4; fill: rgb(191,168,121); fill-rule: nonzero; opacity: 1;" vector-effect="non-scaling-stroke"  transform=" translate(-11.73, 15.61)" d="M 11.734375 0.398438 C 13.503906 0.398438 14.878906 -0.972656 14.878906 -2.523438 L 14.878906 -12.222656 L 22.625 -27.453125 C 22.757812 -27.851562 22.9375 -28.339844 22.9375 -28.738281 C 22.9375 -30.285156 21.386719 -31.613281 19.792969 -31.613281 C 18.820312 -31.613281 17.757812 -31.214844 17.222656 -30.285156 L 11.734375 -19.304688 L 6.199219 -30.285156 C 5.667969 -31.214844 4.605469 -31.613281 3.675781 -31.613281 C 2.082031 -31.613281 0.53125 -30.285156 0.53125 -28.738281 C 0.53125 -28.292969 0.664062 -27.761719 0.796875 -27.453125 L 8.589844 -12.222656 L 8.589844 -2.523438 C 8.589844 -0.929688 9.960938 0.398438 11.734375 0.398438 Z M 11.734375 0.398438" stroke-linecap="round" />
</g>
		<g transform="matrix(1.33 0 0 1.33 0 -99.88)" clip-path="url(#CLIPPATH_3)"  >
<clipPath id="CLIPPATH_3" >
	<path transform="matrix(1 0 0 1 -25.59 -0.05) translate(-1474.52, -667.61)" id="Infinity" clip-path="url(#undefined)" d="M 1562.925781 733.691406 C 1562.980469 734.082031 1563.0625 734.957031 1563.214844 735.816406 C 1563.367188 736.707031 1563.816406 737.464844 1564.5 738.058594 C 1565.300781 738.746094 1566.113281 739.414062 1566.957031 740.054688 C 1567.375 740.363281 1567.847656 740.632812 1568.328125 740.835938 C 1572.253906 742.53125 1576.742188 741.4375 1579.222656 738.097656 C 1580.660156 736.171875 1581.246094 734.027344 1580.675781 731.640625 C 1580.589844 731.296875 1580.507812 730.953125 1580.410156 730.621094 C 1579.09375 725.941406 1573.441406 723.179688 1569.027344 724.816406 C 1566.160156 725.878906 1562.910156 728.761719 1562.925781 733.691406 M 1596.734375 552.367188 C 1596.316406 551.757812 1595.683594 551.417969 1595.046875 551.136719 C 1589.523438 548.695312 1583.832031 546.722656 1577.953125 545.324219 C 1568.039062 542.972656 1558.027344 542.242188 1547.855469 542.902344 C 1525.566406 544.355469 1504.378906 553.867188 1488.503906 568.601562 C 1473.660156 582.371094 1463.9375 599.175781 1459.359375 618.902344 C 1457.21875 628.109375 1456.398438 637.472656 1457.074219 646.90625 C 1458.484375 666.503906 1464.972656 684.246094 1476.863281 699.945312 C 1481.382812 705.910156 1486.523438 711.273438 1492.269531 716.050781 C 1493.757812 717.296875 1495.3125 718.46875 1496.847656 719.664062 C 1497.371094 720.074219 1498.421875 719.648438 1498.535156 719.019531 C 1498.589844 718.667969 1498.710938 718.332031 1498.75 717.984375 C 1498.824219 717.285156 1498.863281 716.574219 1498.917969 715.859375 C 1499.03125 714.269531 1499.121094 712.679688 1499.257812 711.089844 C 1499.828125 704.144531 1501.480469 697.457031 1504.171875 691.039062 C 1505.550781 687.757812 1507.210938 684.625 1509.285156 681.734375 C 1509.589844 681.316406 1509.992188 680.925781 1510.433594 680.660156 C 1510.671875 680.523438 1511.15625 680.5625 1511.410156 680.714844 C 1512.183594 681.179688 1512.65625 681.953125 1513.203125 682.648438 C 1515.050781 685.027344 1517.054688 687.289062 1519.199219 689.410156 C 1527.847656 697.96875 1538.074219 703.734375 1549.878906 706.640625 C 1553.492188 707.53125 1557.160156 708.15625 1560.910156 708.253906 C 1566.0625 708.390625 1571.195312 708.390625 1576.261719 707.300781 C 1576.945312 707.15625 1577.671875 707.152344 1578.371094 707.113281 C 1578.917969 707.089844 1579.457031 707.28125 1579.839844 707.636719 C 1581.007812 708.71875 1582.152344 709.835938 1583.261719 710.96875 C 1587.726562 715.535156 1592.167969 720.113281 1596.628906 724.679688 C 1597.867188 725.949219 1599.085938 727.226562 1600.628906 728.148438 C 1601.230469 728.503906 1601.738281 729.023438 1602.234375 729.523438 C 1608.3125 735.730469 1614.382812 741.945312 1620.453125 748.171875 C 1620.699219 748.421875 1620.886719 748.726562 1621.09375 749.015625 C 1621.398438 749.472656 1621.535156 749.988281 1621.351562 750.519531 C 1621.183594 751.023438 1620.972656 751.515625 1620.722656 751.972656 C 1617.929688 756.917969 1614.992188 761.773438 1611.742188 766.421875 C 1608.078125 771.664062 1604.015625 776.578125 1599.488281 781.101562 C 1598.492188 782.101562 1597.375 782.996094 1596.621094 784.230469 C 1596.390625 784.609375 1596.519531 785.425781 1596.917969 785.605469 C 1597.875 786.054688 1598.820312 786.550781 1599.792969 786.953125 C 1608.488281 790.511719 1617.183594 794.050781 1625.886719 797.605469 C 1627.523438 798.273438 1629.171875 798.933594 1630.777344 799.671875 C 1633.699219 801.027344 1636.324219 802.808594 1638.539062 805.171875 C 1640.515625 807.28125 1641.855469 809.753906 1642.722656 812.492188 C 1642.773438 812.660156 1642.8125 812.832031 1642.851562 813 C 1644.898438 822.9375 1639.867188 831.488281 1632.085938 835.125 C 1629.980469 836.105469 1627.765625 836.714844 1625.414062 836.746094 C 1624 836.757812 1622.578125 836.78125 1621.164062 836.78125 C 1574.535156 836.78125 1527.902344 836.78125 1481.273438 836.773438 C 1478.796875 836.773438 1476.308594 836.757812 1473.828125 836.714844 C 1470.457031 836.660156 1467.09375 836.5625 1463.738281 836.144531 C 1463.039062 836.058594 1462.332031 836 1461.625 835.945312 C 1453.644531 835.421875 1445.777344 834.074219 1437.996094 832.316406 C 1423.570312 829.070312 1409.789062 824.023438 1396.6875 817.15625 C 1381.664062 809.273438 1368.136719 799.339844 1356.070312 787.417969 C 1354.304688 785.675781 1352.539062 783.933594 1350.761719 782.207031 C 1350.351562 781.808594 1349.605469 781.871094 1349.414062 782.3125 C 1349.269531 782.632812 1349.0625 782.929688 1348.949219 783.257812 C 1348.773438 783.757812 1348.617188 784.269531 1348.5 784.785156 C 1346.597656 793.253906 1344.710938 801.734375 1342.804688 810.203125 C 1341.867188 814.347656 1340.863281 818.488281 1339.90625 822.625 C 1339.464844 824.542969 1338.75 826.34375 1337.796875 828.054688 C 1336.125 831.085938 1333.796875 833.457031 1330.644531 834.964844 C 1328.386719 836.042969 1326.003906 836.683594 1323.472656 836.722656 C 1321.511719 836.75 1319.59375 836.546875 1317.699219 835.992188 C 1312.351562 834.433594 1308.859375 830.933594 1306.980469 825.773438 C 1306.1875 823.605469 1305.730469 821.339844 1305.746094 819.003906 C 1305.753906 817.589844 1305.722656 816.167969 1305.722656 814.75 C 1305.738281 768.824219 1305.746094 722.90625 1305.769531 676.988281 C 1305.769531 674.507812 1305.777344 672.027344 1305.832031 669.539062 C 1305.898438 666.34375 1305.976562 663.15625 1306.402344 659.992188 C 1306.492188 659.292969 1306.554688 658.578125 1306.589844 657.867188 C 1306.964844 651.3125 1307.984375 644.820312 1309.222656 638.386719 C 1311.347656 627.410156 1314.335938 616.660156 1318.359375 606.207031 C 1325.695312 587.15625 1335.902344 569.84375 1349.40625 554.503906 C 1363.519531 538.46875 1380.15625 525.71875 1399.296875 516.226562 C 1409.171875 511.324219 1419.402344 507.371094 1430.039062 504.472656 C 1436.199219 502.789062 1442.429688 501.480469 1448.738281 500.445312 C 1453.644531 499.640625 1458.597656 499.253906 1463.535156 498.773438 C 1467.945312 498.347656 1472.390625 498.476562 1476.816406 498.445312 C 1483.398438 498.394531 1489.910156 499.175781 1496.4375 499.792969 C 1528.648438 504.226562 1557.449219 516.535156 1582.652344 537.144531 C 1587.460938 541.078125 1592.039062 545.261719 1596.277344 549.8125 C 1596.953125 550.542969 1597.097656 551.332031 1596.621094 552.222656 Z M 1596.734375 552.367188" stroke-linecap="round" />
</clipPath>
<path style="stroke: none; stroke-width: 1; stroke-dasharray: none; stroke-linecap: butt; stroke-dashoffset: 0; stroke-linejoin: miter; stroke-miterlimit: 4; fill: rgb(214,216,215); fill-rule: nonzero; opacity: 1;" vector-effect="non-scaling-stroke"  transform=" translate(-1500.11, -667.66)" d="M 1301.929688 494.589844 L 1698.28125 494.589844 L 1698.28125 840.730469 L 1301.929688 840.730469 Z M 1301.929688 494.589844" stroke-linecap="round" />
</g>
		<g transform="matrix(1.33 0 0 1.33 0 -99.88)" clip-path="url(#CLIPPATH_4)"  >
<clipPath id="CLIPPATH_4" >
	<path transform="matrix(1 0 0 1 44.44 -69.44) translate(-1544.55, -598.22)" id="f68bd649dc" clip-path="url(#undefined)" d="M 1544.925781 613.28125 C 1537.351562 613.128906 1531.628906 608.230469 1529.894531 602.050781 C 1528.023438 595.402344 1531.394531 586.554688 1539.785156 583.929688 C 1547.75 581.445312 1555.191406 585.164062 1558.339844 592.125 C 1559.144531 593.90625 1559.527344 595.8125 1559.679688 597.761719 C 1559.707031 598.113281 1559.714844 598.46875 1559.679688 598.820312 C 1559.144531 604.265625 1556.765625 608.578125 1551.910156 611.320312 C 1549.566406 612.640625 1547.019531 613.328125 1544.925781 613.289062" stroke-linecap="round" />
</clipPath>
<path style="stroke: none; stroke-width: 1; stroke-dasharray: none; stroke-linecap: butt; stroke-dashoffset: 0; stroke-linejoin: miter; stroke-miterlimit: 4; fill: rgb(191,168,121); fill-rule: nonzero; opacity: 1;" vector-effect="non-scaling-stroke"  transform=" translate(-1500.11, -667.66)" d="M 1301.929688 494.589844 L 1698.28125 494.589844 L 1698.28125 840.730469 L 1301.929688 840.730469 Z M 1301.929688 494.589844" stroke-linecap="round" />
</g>
		<g transform="matrix(1.33 0 0 1.33 0 -99.88)" clip-path="url(#CLIPPATH_5)"  >
<clipPath id="CLIPPATH_5" >
	<path transform="matrix(1 0 0 1 174.09 148.78) translate(-1674.2, -816.44)" id="b22845691e" clip-path="url(#undefined)" d="M 1690.695312 816.476562 C 1690.855469 811.527344 1688.570312 806.953125 1685.679688 804.367188 C 1680.804688 800 1675.199219 798.644531 1668.929688 800.707031 C 1663.902344 802.359375 1660.539062 805.789062 1658.707031 810.75 C 1657.953125 812.773438 1657.640625 814.851562 1657.722656 817.003906 C 1657.960938 822.679688 1660.304688 827.242188 1665.050781 830.429688 C 1668.578125 832.796875 1672.503906 833.585938 1676.703125 832.949219 C 1682.160156 832.125 1686.175781 829.242188 1688.800781 824.414062 C 1690.175781 821.871094 1690.824219 819.140625 1690.695312 816.476562 M 1694.050781 816.636719 C 1694.164062 824.59375 1689.027344 832.925781 1679.449219 835.589844 C 1678.773438 835.777344 1678.066406 835.878906 1677.367188 835.96875 C 1675.785156 836.167969 1674.195312 836.179688 1672.597656 836.113281 C 1665.484375 835.832031 1658.050781 830.796875 1655.417969 823.113281 C 1652.003906 813.136719 1656.765625 802.160156 1666.753906 798.175781 C 1676.277344 794.371094 1686.671875 798.457031 1691.347656 806.277344 C 1693.304688 809.554688 1694.261719 813.085938 1694.050781 816.644531" stroke-linecap="round" />
</clipPath>
<path style="stroke: none; stroke-width: 1; stroke-dasharray: none; stroke-linecap: butt; stroke-dashoffset: 0; stroke-linejoin: miter; stroke-miterlimit: 4; fill: rgb(191,168,121); fill-rule: nonzero; opacity: 1;" vector-effect="non-scaling-stroke"  transform=" translate(-1500.11, -667.66)" d="M 1301.929688 494.589844 L 1698.28125 494.589844 L 1698.28125 840.730469 L 1301.929688 840.730469 Z M 1301.929688 494.589844" stroke-linecap="round" />
</g>
		<g transform="matrix(1.33 0 0 1.33 0 -99.88)" clip-path="url(#CLIPPATH_6)"  >
<clipPath id="CLIPPATH_6" >
	<path transform="matrix(1 0 0 1 174.97 148.84) translate(-1675.07, -816.5)" id="ed52ca409a" clip-path="url(#undefined)" d="M 1674.1875 808.164062 C 1673.457031 808.207031 1672.757812 808.246094 1672.0625 808.292969 C 1671.890625 808.308594 1671.730469 808.375 1671.546875 808.398438 C 1671.171875 808.460938 1670.59375 809.066406 1670.488281 809.449219 C 1670.117188 810.824219 1670.222656 812.21875 1670.351562 813.601562 C 1670.429688 814.425781 1671.257812 815.214844 1672.125 815.238281 C 1673.34375 815.269531 1674.566406 815.3125 1675.777344 815.230469 C 1676.460938 815.183594 1677.136719 814.941406 1677.792969 814.707031 C 1679.160156 814.226562 1679.890625 812.992188 1679.839844 811.410156 C 1679.792969 810.003906 1678.667969 809.023438 1677.753906 808.648438 C 1677.433594 808.519531 1677.101562 808.390625 1676.757812 808.351562 C 1675.890625 808.261719 1675.015625 808.214844 1674.1875 808.15625 M 1666.921875 816.578125 C 1666.921875 813.921875 1666.898438 811.257812 1666.9375 808.605469 C 1666.945312 807.902344 1667.117188 807.210938 1667.210938 806.511719 C 1667.257812 806.183594 1667.949219 805.394531 1668.214844 805.355469 C 1668.390625 805.324219 1668.5625 805.265625 1668.730469 805.242188 C 1671.378906 804.9375 1674.035156 805.042969 1676.6875 805.195312 C 1677.761719 805.257812 1678.78125 805.578125 1679.769531 805.980469 C 1681.75 806.785156 1682.867188 808.292969 1683.148438 810.375 C 1683.269531 811.242188 1683.238281 812.148438 1683.140625 813.015625 C 1682.964844 814.492188 1682.234375 815.695312 1681.039062 816.578125 C 1680.332031 817.101562 1679.550781 817.527344 1678.789062 817.96875 C 1678.402344 818.195312 1678.1875 818.890625 1678.46875 819.367188 C 1679.183594 820.59375 1679.929688 821.796875 1680.660156 823.003906 C 1681.390625 824.214844 1682.105469 825.441406 1682.8125 826.65625 C 1683.003906 826.976562 1682.5 827.78125 1682.066406 827.882812 C 1681.320312 828.054688 1680.628906 827.875 1680.113281 827.355469 C 1679.617188 826.863281 1679.199219 826.277344 1678.8125 825.691406 C 1677.535156 823.773438 1676.300781 821.832031 1675.023438 819.925781 C 1674.734375 819.492188 1674.390625 819.070312 1673.875 818.851562 C 1673.03125 818.492188 1672.191406 818.394531 1671.3125 818.753906 C 1670.960938 818.890625 1670.6875 819.070312 1670.59375 819.460938 C 1670.472656 819.96875 1670.304688 820.488281 1670.277344 820.996094 C 1670.167969 822.761719 1670.117188 824.535156 1670.039062 826.300781 C 1670.015625 826.894531 1669.347656 827.570312 1668.664062 827.746094 C 1668.238281 827.851562 1667.445312 827.492188 1667.347656 827.113281 C 1667.210938 826.609375 1666.980469 826.101562 1666.972656 825.597656 C 1666.945312 822.585938 1666.960938 819.582031 1666.960938 816.570312 Z M 1666.921875 816.578125" stroke-linecap="round" />
</clipPath>
<path style="stroke: none; stroke-width: 1; stroke-dasharray: none; stroke-linecap: butt; stroke-dashoffset: 0; stroke-linejoin: miter; stroke-miterlimit: 4; fill: rgb(239,239,239); fill-rule: nonzero; opacity: 1;" vector-effect="non-scaling-stroke"  transform=" translate(-1500.11, -667.66)" d="M 1301.929688 494.589844 L 1698.28125 494.589844 L 1698.28125 840.730469 L 1301.929688 840.730469 Z M 1301.929688 494.589844" stroke-linecap="round" />
</g>
</g>
</g>
</svg>